<?xml version="1.0" encoding="utf-8"?>
<!-- Generator: Adobe Illustrator 17.1.0, SVG Export Plug-In . SVG Version: 6.00 Build 0)  -->
<!DOCTYPE svg PUBLIC "-//W3C//DTD SVG 1.1//EN" "http://www.w3.org/Graphics/SVG/1.1/DTD/svg11.dtd">
<svg version="1.1" id="Layer_1" xmlns="http://www.w3.org/2000/svg" xmlns:xlink="http://www.w3.org/1999/xlink" x="0px" y="0px"
	 viewBox="0 0 35 13" enable-background="new 0 0 35 13" xml:space="preserve">
<path fill="#FFFFFF" d="M35,11.2c0,1-0.8,1.8-1.8,1.8H1.8c-1,0-1.8-0.8-1.8-1.8V1.8C0,0.8,0.8,0,1.8,0h31.5c1,0,1.8,0.8,1.8,1.8
	V11.2z"/>
<path d="M33.8,10.6c0,0.8-0.6,1.4-1.4,1.4H2.8c-0.8,0-1.4-0.6-1.4-1.4V2.5C1.4,1.7,2,1,2.8,1h29.5c0.8,0,1.4,0.6,1.4,1.4V10.6z"/>
</svg>
