<?xml version="1.0" encoding="utf-8"?>
<!-- Generator: Adobe Illustrator 17.1.0, SVG Export Plug-In . SVG Version: 6.00 Build 0)  -->
<!DOCTYPE svg PUBLIC "-//W3C//DTD SVG 1.1//EN" "http://www.w3.org/Graphics/SVG/1.1/DTD/svg11.dtd">
<svg version="1.1" id="Layer_1" xmlns="http://www.w3.org/2000/svg" xmlns:xlink="http://www.w3.org/1999/xlink" x="0px" y="0px"
	 viewBox="0 0 17 16.5" enable-background="new 0 0 17 16.5" xml:space="preserve">
<path stroke="#FFFFFF" stroke-width="2" stroke-linecap="round" stroke-linejoin="bevel" stroke-miterlimit="10" d="M15.9,14.5
	c0,0.5-0.4,0.9-0.9,0.9H2c-0.5,0-0.9-0.4-0.9-0.9V2.3c0-0.5,0.4-0.9,0.9-0.9h13c0.5,0,0.9,0.4,0.9,0.9V14.5z"/>
<path d="M15.9,14.5c0,0.5-0.4,0.9-0.9,0.9H2c-0.5,0-0.9-0.4-0.9-0.9V2.3c0-0.5,0.4-0.9,0.9-0.9h13c0.5,0,0.9,0.4,0.9,0.9V14.5z"/>
</svg>
