<?xml version="1.0" encoding="utf-8"?>
<!-- Generator: Adobe Illustrator 17.1.0, SVG Export Plug-In . SVG Version: 6.00 Build 0)  -->
<!DOCTYPE svg PUBLIC "-//W3C//DTD SVG 1.1//EN" "http://www.w3.org/Graphics/SVG/1.1/DTD/svg11.dtd">
<svg version="1.1" id="Layer_1" xmlns="http://www.w3.org/2000/svg" xmlns:xlink="http://www.w3.org/1999/xlink" x="0px" y="0px"
	 viewBox="0 0 25.1 13" enable-background="new 0 0 25.1 13" xml:space="preserve">
<path fill="#FFFFFF" d="M25.1,11.7c0,0.7-0.6,1.3-1.3,1.3H1.3C0.6,13,0,12.4,0,11.7V1.3C0,0.6,0.6,0,1.3,0h22.6
	c0.7,0,1.3,0.6,1.3,1.3V11.7z"/>
<path d="M24.2,11.2c0,0.6-0.5,1-1,1H2c-0.6,0-1-0.5-1-1V1.8c0-0.6,0.5-1,1-1h21.1c0.6,0,1,0.5,1,1V11.2z"/>
</svg>
