<?xml version="1.0" encoding="utf-8"?>
<!-- Generator: Adobe Illustrator 17.1.0, SVG Export Plug-In . SVG Version: 6.00 Build 0)  -->
<!DOCTYPE svg PUBLIC "-//W3C//DTD SVG 1.1//EN" "http://www.w3.org/Graphics/SVG/1.1/DTD/svg11.dtd">
<svg version="1.1" id="Layer_1" xmlns="http://www.w3.org/2000/svg" xmlns:xlink="http://www.w3.org/1999/xlink" x="0px" y="0px"
	 viewBox="0 0 30 13.1" enable-background="new 0 0 30 13.1" xml:space="preserve">
<path fill="#FFFFFF" d="M30,11.6c0,0.8-0.7,1.5-1.5,1.5h-27c-0.8,0-1.5-0.7-1.5-1.5V1.5C0,0.7,0.7,0,1.5,0h27C29.3,0,30,0.7,30,1.5
	V11.6z"/>
<path d="M28.9,11c0,0.7-0.6,1.2-1.2,1.2H2.4c-0.7,0-1.2-0.6-1.2-1.2V2.1c0-0.7,0.6-1.2,1.2-1.2h25.2c0.7,0,1.2,0.6,1.2,1.2V11z"/>
</svg>
