<?xml version="1.0" encoding="utf-8"?>
<!-- Generator: Adobe Illustrator 17.1.0, SVG Export Plug-In . SVG Version: 6.00 Build 0)  -->
<!DOCTYPE svg PUBLIC "-//W3C//DTD SVG 1.1//EN" "http://www.w3.org/Graphics/SVG/1.1/DTD/svg11.dtd">
<svg version="1.1" id="Layer_1" xmlns="http://www.w3.org/2000/svg" xmlns:xlink="http://www.w3.org/1999/xlink" x="0px" y="0px"
	 viewBox="0 0 31.8 16" enable-background="new 0 0 31.8 16" xml:space="preserve">
<path fill="#FFFFFF" d="M31.8,14.1c0,1-0.8,1.8-1.8,1.8H1.8c-1,0-1.8-0.8-1.8-1.8V1.8C0,0.8,0.8,0,1.8,0H30c1,0,1.8,0.8,1.8,1.8
	V14.1z"/>
<path d="M30.5,13.4c0,0.8-0.7,1.5-1.5,1.5H2.9c-0.8,0-1.5-0.7-1.5-1.5V2.6c0-0.8,0.7-1.5,1.5-1.5H29c0.8,0,1.5,0.7,1.5,1.5V13.4z"/>
</svg>
