<?xml version="1.0" encoding="utf-8"?>
<!-- Generator: Adobe Illustrator 17.1.0, SVG Export Plug-In . SVG Version: 6.00 Build 0)  -->
<!DOCTYPE svg PUBLIC "-//W3C//DTD SVG 1.1//EN" "http://www.w3.org/Graphics/SVG/1.1/DTD/svg11.dtd">
<svg version="1.1" id="Layer_1" xmlns="http://www.w3.org/2000/svg" xmlns:xlink="http://www.w3.org/1999/xlink" x="0px" y="0px"
	 viewBox="0 0 40 13" enable-background="new 0 0 40 13" xml:space="preserve">
<path fill="#FFFFFF" d="M40,11c0,1.1-0.9,2-2,2H2c-1.1,0-2-0.9-2-2V2c0-1.1,0.9-2,2-2h36c1.1,0,2,0.9,2,2V11z"/>
<path d="M38.5,10.2c0,0.9-0.7,1.6-1.6,1.6H3.2c-0.9,0-1.6-0.7-1.6-1.6V2.8c0-0.9,0.7-1.6,1.6-1.6h33.7c0.9,0,1.6,0.7,1.6,1.6V10.2z"
	/>
</svg>
